<svg width="181" height="52" viewBox="0 0 181 52" fill="none" xmlns="http://www.w3.org/2000/svg">
    <path d="M2.78287 49.3023C4.31981 49.3023 5.56575 48.0769 5.56575 46.5654C5.56575 45.0539 4.31981 43.8286 2.78287 43.8286C1.24594 43.8286 0 45.0539 0 46.5654C0 48.0769 1.24594 49.3023 2.78287 49.3023Z" fill="#334681"/>
    <path d="M36.2171 49.3023C37.7541 49.3023 39 48.0769 39 46.5654C39 45.0539 37.7541 43.8286 36.2171 43.8286C34.6802 43.8286 33.4343 45.0539 33.4343 46.5654C33.4343 48.0769 34.6802 49.3023 36.2171 49.3023Z" fill="#00AAFF"/>
    <path d="M25.841 8.32782L3.77676 0.156391C3.69725 0.156391 3.61774 0.117293 3.53823 0.117293C3.45872 0.0781955 3.3792 0.0781955 3.29969 0.0390977C3.25994 0.0390977 3.25994 0.0390977 3.22018 0.0390977C3.18043 0.0390977 3.10092 0 3.06116 0C2.98165 0 2.86239 0 2.78287 0C1.55046 0 0.477064 0.821053 0.119266 1.91579C0.0397554 2.18947 0 2.46316 0 2.73684V38.3158C0 39.8406 1.23242 41.0526 2.78287 41.0526C4.33333 41.0526 5.56575 39.8406 5.56575 38.3158V6.68571L22.263 12.8632V46.7218C22.263 48.1293 23.4954 49.3023 25.0459 49.3023C26.5963 49.3023 27.8287 48.1684 27.8287 46.7218V10.791C27.8287 9.61805 26.9939 8.6406 25.841 8.32782Z" fill="#00AAFF"/>
    <path d="M37.0122 24.7489L14.9082 16.6165C14.8287 16.5774 14.7492 16.5774 14.6697 16.5383C14.5902 16.5383 14.5107 16.4992 14.4312 16.4992C14.3914 16.4992 14.3914 16.4992 14.3517 16.4992C14.3119 16.4992 14.2324 16.4992 14.1926 16.4601C14.1131 16.4601 14.0336 16.4601 13.9143 16.4601C12.6819 16.4601 11.6085 17.2812 11.2507 18.3759C11.1712 18.6105 11.1315 18.8842 11.1315 19.1579V49.2632C11.1315 50.788 12.3639 52 13.9143 52C15.4648 52 16.6972 50.788 16.6972 49.2632V23.1068L33.3945 29.2842V38.5113C33.3945 39.9188 34.6269 41.0917 36.1773 41.0917C37.7278 41.0917 38.9602 39.9579 38.9602 38.5113V27.212C39 26.0391 38.1651 25.0616 37.0122 24.7489Z" fill="#334681"/>
    <path d="M67.9782 34.7977C68.0895 35.096 68.1265 35.2824 68.1265 35.3196C68.1265 35.4688 68.0153 35.5806 67.8299 35.6552C66.2725 36.3634 64.4185 36.699 62.2678 36.699C59.8576 36.699 58.0406 36.0652 56.817 34.7605C55.5933 33.493 55 31.5545 55 29.0196C55 26.4846 55.5933 24.5088 56.817 23.0922C58.0406 21.6757 59.7463 21.0046 61.9341 21.0046C63.9364 21.0046 65.4567 21.6384 66.495 22.9059C67.5333 24.1733 68.0524 26.0373 68.0524 28.5349C68.0524 28.945 68.0524 29.2432 68.0153 29.4296C67.9782 29.616 67.9411 29.7278 67.867 29.8024C67.7928 29.877 67.6816 29.9142 67.4591 29.9142H59.2272C59.2643 31.0326 59.598 31.89 60.1913 32.4865C60.7846 33.0456 61.6745 33.3439 62.7869 33.3439C63.9364 33.3439 65.123 33.1202 66.4208 32.6729C66.5321 32.6356 66.6062 32.5983 66.7175 32.561C66.8287 32.5237 66.9029 32.4865 66.977 32.4865C67.0883 32.4865 67.1254 32.4865 67.1624 32.5237C67.1995 32.561 67.2366 32.5983 67.2737 32.7101L67.9782 34.7977ZM64.1589 27.2302C64.1218 26.1491 63.9364 25.3662 63.5285 24.8816C63.1207 24.397 62.5274 24.136 61.7116 24.136C60.1913 24.136 59.3755 25.1798 59.2272 27.2302H64.1589Z" fill="#334681"/>
    <path d="M82.2543 25.4781C82.2543 25.2917 82.3655 25.1799 82.5509 25.1799H86.1477C86.3331 25.1799 86.4444 25.2917 86.4444 25.4781V35.0214C86.4444 35.2078 86.4073 35.3197 86.3702 35.4315C86.296 35.5433 86.1848 35.6179 85.9252 35.7297C85.2578 35.9907 84.3679 36.2516 83.2554 36.438C82.143 36.6244 81.0677 36.7362 80.0665 36.7362C76.8405 36.7362 74.4673 35.8788 72.8729 34.2013C71.2784 32.5238 70.4997 29.9888 70.4997 26.5592C70.4997 22.9059 71.3526 20.11 73.0583 18.1715C74.764 16.233 77.2113 15.2637 80.4002 15.2637C82.0318 15.2637 83.5892 15.5247 84.9982 16.0466C85.2949 16.1584 85.4803 16.2703 85.4803 16.4194C85.4803 16.5312 85.4432 16.643 85.4061 16.8294L84.6645 19.2898C84.5903 19.5135 84.5162 19.6253 84.4049 19.6253C84.3679 19.6253 84.2937 19.6253 84.2195 19.5881C84.1454 19.5508 84.0341 19.5508 83.96 19.5135C82.7363 19.178 81.5497 18.9916 80.3631 18.9916C78.5833 18.9916 77.2855 19.5881 76.3584 20.7437C75.4685 21.8993 75.0235 23.6514 75.0235 25.9254C75.0235 28.3485 75.4314 30.1379 76.2472 31.2563C77.063 32.3746 78.3608 32.9338 80.1407 32.9338C80.9564 32.9338 81.698 32.822 82.2913 32.5983V25.4781H82.2543Z" fill="#00AAFF"/>
    <path d="M96.2707 36.699C93.9717 36.699 92.266 36.0652 91.1536 34.835C90.0412 33.6048 89.485 31.7409 89.485 29.206C89.485 26.5592 90.0783 24.5088 91.3019 23.0923C92.4885 21.6757 94.2313 20.9674 96.4562 20.9674C98.7181 20.9674 100.424 21.6011 101.536 22.8313C102.649 24.0615 103.205 25.9254 103.205 28.4604C103.205 31.1072 102.612 33.1575 101.388 34.5741C100.201 35.9907 98.4956 36.699 96.2707 36.699ZM96.3449 33.2693C97.1978 33.2693 97.8652 32.9338 98.2731 32.2628C98.681 31.5918 98.8664 30.548 98.8664 29.0941C98.8664 27.4539 98.681 26.2609 98.2731 25.5154C97.9023 24.8071 97.2348 24.4343 96.3449 24.4343C95.492 24.4343 94.8246 24.7698 94.4167 25.4408C94.0088 26.1118 93.8234 27.1556 93.8234 28.6095C93.8234 30.2498 94.0088 31.4427 94.4167 32.1883C94.7875 32.8965 95.4179 33.2693 96.3449 33.2693Z" fill="#00AAFF"/>
    <path d="M109.212 36.438C109.101 36.438 109.026 36.4007 108.989 36.3634C108.915 36.2889 108.878 36.2143 108.841 36.1025L104.391 21.9739C104.317 21.7875 104.28 21.6757 104.28 21.5638C104.28 21.4147 104.391 21.3401 104.577 21.3401H108.396C108.544 21.3401 108.656 21.3774 108.693 21.4147C108.73 21.452 108.767 21.5265 108.804 21.6384L111.4 32.5237L113.958 21.6384C113.995 21.5265 113.995 21.452 114.069 21.4147C114.107 21.3774 114.218 21.3401 114.366 21.3401H118.185C118.371 21.3401 118.445 21.4147 118.445 21.5638C118.445 21.6384 118.408 21.7502 118.371 21.9366L113.81 36.0652C113.736 36.2889 113.587 36.4007 113.365 36.4007H109.212V36.438Z" fill="#00AAFF"/>
    <path d="M121.226 36.438C120.966 36.438 120.855 36.3262 120.855 36.1025V15.8975C120.855 15.6738 120.966 15.562 121.226 15.562H133.611C133.833 15.562 133.945 15.6738 133.945 15.9347V18.917C133.945 19.178 133.833 19.2898 133.611 19.2898H125.231V24.0242H131.312C131.534 24.0242 131.646 24.136 131.646 24.397V27.342C131.646 27.603 131.534 27.7148 131.312 27.7148H125.231V36.1025C125.231 36.3262 125.119 36.438 124.86 36.438H121.226Z" fill="#334681"/>
    <path d="M142.436 36.438C141.769 36.6244 140.99 36.7362 140.174 36.7362C138.951 36.7362 138.024 36.3262 137.43 35.5433C136.837 34.7605 136.54 33.5303 136.54 31.9273V15.8975C136.54 15.6738 136.652 15.562 136.911 15.562H140.397C140.656 15.562 140.767 15.6738 140.767 15.8975V31.3681C140.767 32.0764 140.842 32.5983 140.953 32.9338C141.101 33.2693 141.324 33.4184 141.62 33.4184H142.177C142.288 33.4184 142.362 33.493 142.399 33.6421L142.77 35.5806C142.807 35.767 142.844 35.9534 142.844 36.1025C142.844 36.177 142.807 36.2516 142.77 36.2889C142.696 36.3262 142.584 36.3634 142.436 36.438Z" fill="#334681"/>
    <path d="M151.187 36.699C148.888 36.699 147.182 36.0652 146.07 34.835C144.958 33.6048 144.401 31.7409 144.401 29.206C144.401 26.5592 144.995 24.5088 146.218 23.0923C147.405 21.6757 149.148 20.9674 151.373 20.9674C153.635 20.9674 155.34 21.6011 156.453 22.8313C157.565 24.0615 158.121 25.9254 158.121 28.4604C158.121 31.1072 157.528 33.1575 156.304 34.5741C155.081 35.9907 153.375 36.699 151.187 36.699ZM151.224 33.2693C152.077 33.2693 152.745 32.9338 153.152 32.2628C153.56 31.5918 153.746 30.548 153.746 29.0941C153.746 27.4539 153.56 26.2609 153.152 25.5154C152.782 24.8071 152.114 24.4343 151.224 24.4343C150.371 24.4343 149.704 24.7698 149.296 25.4408C148.888 26.1118 148.703 27.1556 148.703 28.6095C148.703 30.2498 148.888 31.4427 149.296 32.1883C149.667 32.8965 150.334 33.2693 151.224 33.2693Z" fill="#334681"/>
    <path d="M173.139 36.438C172.953 36.438 172.805 36.3262 172.768 36.1025L170.395 25.4035L167.985 36.0652C167.911 36.2889 167.799 36.4007 167.614 36.4007H163.869C163.683 36.4007 163.535 36.2889 163.498 36.0652L159.679 21.8993C159.642 21.8248 159.642 21.7875 159.604 21.713C159.567 21.6384 159.567 21.5638 159.567 21.5266C159.567 21.3774 159.679 21.3029 159.864 21.3029H163.424C163.683 21.3029 163.795 21.4147 163.832 21.6011L165.871 32.2628L168.096 21.6011C168.17 21.4147 168.281 21.3029 168.43 21.3029H172.138C172.286 21.3029 172.397 21.3402 172.434 21.3774C172.471 21.4147 172.509 21.4893 172.546 21.6011L174.919 32.2628L176.81 21.6011C176.847 21.4147 176.958 21.3029 177.218 21.3029H180.703C180.889 21.3029 181 21.3774 181 21.5266C181 21.5638 181 21.6011 181 21.6757C181 21.7502 180.963 21.8248 180.926 21.8993L177.255 36.0652C177.181 36.2889 177.069 36.4007 176.884 36.4007H173.139V36.438Z" fill="#334681"/>
</svg>
